<svg xmlns="http://www.w3.org/2000/svg" xml:space="preserve" style="enable-background:new 0 0 750 500" viewBox="0 0 750 500"><path d="M66.405 132.195h55.268v175.156H66.405z" style="fill:#f5f5f5"/><path d="M94.039 132.195h27.634v174.674H94.039z" style="fill:#ebebeb"/><path d="M72.716 115h19.517v17.195H72.716z" style="fill:#f5f5f5"/><path d="M87.581 115h4.652v17.195h-4.652z" style="fill:#ebebeb"/><path d="M61.799 132.195v-1.003h61.492v1.003" style="fill:#e0e0e0"/><path d="M77.315 139.695h4.678v9.864h-4.678z" style="fill:#fafafa"/><path d="M94.039 153.431c0 .104-6.187.188-13.816.188-7.632 0-13.818-.084-13.818-.188s6.185-.188 13.818-.188c7.63-.001 13.816.084 13.816.188zM105.189 139.695h4.678v9.864h-4.678zM121.914 153.431c0 .104-6.187.188-13.816.188-7.633 0-13.818-.084-13.818-.188s6.185-.188 13.818-.188c7.629-.001 13.816.084 13.816.188zM105.189 159.28h4.678v9.864h-4.678zM121.914 173.015c0 .104-6.187.188-13.816.188-7.633 0-13.818-.085-13.818-.188 0-.104 6.185-.188 13.818-.188 7.629 0 13.816.084 13.816.188zM105.189 179.455h4.678v9.864h-4.678zM121.914 193.191c0 .104-6.187.188-13.816.188-7.633 0-13.818-.084-13.818-.188s6.185-.188 13.818-.188c7.629 0 13.816.084 13.816.188zM105.189 199.63h4.678v9.864h-4.678zM121.914 213.366c0 .104-6.187.188-13.816.188-7.633 0-13.818-.084-13.818-.188s6.185-.188 13.818-.188c7.629 0 13.816.084 13.816.188zM105.189 219.229h4.678v9.864h-4.678zM121.914 232.965c0 .104-6.187.188-13.816.188-7.633 0-13.818-.084-13.818-.188s6.185-.188 13.818-.188c7.629-.001 13.816.084 13.816.188zM105.189 238.906h4.678v9.865h-4.678zM105.189 258.842h4.678v9.864h-4.678zM121.914 252.643c0 .104-6.187.188-13.816.188-7.633 0-13.818-.085-13.818-.188 0-.104 6.185-.188 13.818-.188 7.629-.001 13.816.083 13.816.188z" style="fill:#e0e0e0"/><path d="M77.315 159.578h4.678v9.864h-4.678z" style="fill:#fafafa"/><path d="M94.039 173.314c0 .104-6.187.188-13.816.188-7.632 0-13.818-.084-13.818-.188s6.185-.188 13.818-.188c7.63 0 13.816.084 13.816.188z" style="fill:#e0e0e0"/><path d="M77.315 179.462h4.678v9.864h-4.678z" style="fill:#fafafa"/><path d="M94.039 193.198c0 .104-6.187.188-13.816.188-7.632 0-13.818-.084-13.818-.188s6.185-.188 13.818-.188c7.63-.001 13.816.084 13.816.188z" style="fill:#e0e0e0"/><path d="M77.315 199.345h4.678v9.864h-4.678z" style="fill:#fafafa"/><path d="M94.039 213.081c0 .104-6.187.188-13.816.188-7.632 0-13.818-.084-13.818-.188s6.185-.188 13.818-.188c7.63 0 13.816.084 13.816.188z" style="fill:#e0e0e0"/><path d="M77.315 219.229h4.678v9.864h-4.678z" style="fill:#fafafa"/><path d="M94.039 232.965c0 .104-6.187.188-13.816.188-7.632 0-13.818-.084-13.818-.188s6.185-.188 13.818-.188c7.63-.001 13.816.084 13.816.188z" style="fill:#e0e0e0"/><path d="M77.315 239.112h4.678v9.864h-4.678z" style="fill:#fafafa"/><path d="M94.039 252.848c0 .104-6.187.188-13.816.188-7.632 0-13.818-.084-13.818-.188s6.185-.188 13.818-.188c7.63 0 13.816.084 13.816.188z" style="fill:#e0e0e0"/><path d="M77.315 258.996h4.678v9.864h-4.678z" style="fill:#fafafa"/><path d="M27.309 181.863h39.71v125.852h-39.71z" style="fill:#f5f5f5"/><path d="M47.164 181.863h19.855v125.505H47.164z" style="fill:#ebebeb"/><path d="M31.843 169.508h14.023v12.355H31.843z" style="fill:#f5f5f5"/><path d="M42.524 169.508h3.342v12.355h-3.342z" style="fill:#ebebeb"/><path d="M23.999 181.863v-.72h44.182v.72" style="fill:#e0e0e0"/><path d="M35.147 187.252h3.361v7.088h-3.361z" style="fill:#fafafa"/><path d="M47.164 197.121c0 .075-4.445.135-9.928.135-5.484 0-9.928-.061-9.928-.135 0-.075 4.444-.135 9.928-.135 5.483 0 9.928.061 9.928.135zM55.175 187.252h3.361v7.088h-3.361zM67.192 197.121c0 .075-4.445.135-9.927.135-5.484 0-9.928-.061-9.928-.135 0-.075 4.444-.135 9.928-.135 5.482 0 9.927.061 9.927.135zM55.175 201.324h3.361v7.088h-3.361zM67.192 211.193c0 .075-4.445.135-9.927.135-5.484 0-9.928-.061-9.928-.135 0-.075 4.444-.135 9.928-.135 5.482 0 9.927.06 9.927.135zM55.175 215.82h3.361v7.088h-3.361zM67.192 225.69c0 .075-4.445.135-9.927.135-5.484 0-9.928-.061-9.928-.135 0-.075 4.444-.135 9.928-.135 5.482-.001 9.927.06 9.927.135zM55.175 230.317h3.361v7.088h-3.361zM67.192 240.186c0 .075-4.445.136-9.927.136-5.484 0-9.928-.061-9.928-.136 0-.074 4.444-.135 9.928-.135 5.482 0 9.927.06 9.927.135zM55.175 244.398h3.361v7.088h-3.361zM67.192 254.268c0 .075-4.445.136-9.927.136-5.484 0-9.928-.061-9.928-.136 0-.074 4.444-.135 9.928-.135 5.482-.001 9.927.06 9.927.135zM55.175 258.537h3.361v7.088h-3.361zM55.175 272.861h3.361v7.088h-3.361zM67.192 268.406c0 .075-4.445.135-9.927.135-5.484 0-9.928-.061-9.928-.135 0-.075 4.444-.135 9.928-.135 5.482 0 9.927.061 9.927.135z" style="fill:#e0e0e0"/><path d="M35.147 201.539h3.361v7.088h-3.361z" style="fill:#fafafa"/><path d="M47.164 211.408c0 .075-4.445.135-9.928.135-5.484 0-9.928-.06-9.928-.135 0-.075 4.444-.135 9.928-.135 5.483 0 9.928.06 9.928.135z" style="fill:#e0e0e0"/><path d="M35.147 215.825h3.361v7.088h-3.361z" style="fill:#fafafa"/><path d="M47.164 225.695c0 .075-4.445.135-9.928.135-5.484 0-9.928-.06-9.928-.135 0-.075 4.444-.135 9.928-.135 5.483-.001 9.928.06 9.928.135z" style="fill:#e0e0e0"/><path d="M35.147 230.112h3.361v7.088h-3.361z" style="fill:#fafafa"/><path d="M47.164 239.981c0 .075-4.445.135-9.928.135-5.484 0-9.928-.06-9.928-.135 0-.075 4.444-.135 9.928-.135 5.483 0 9.928.061 9.928.135z" style="fill:#e0e0e0"/><path d="M35.147 244.398h3.361v7.088h-3.361z" style="fill:#fafafa"/><path d="M47.164 254.268c0 .075-4.445.136-9.928.136-5.484 0-9.928-.061-9.928-.136 0-.074 4.444-.135 9.928-.135 5.483-.001 9.928.06 9.928.135z" style="fill:#e0e0e0"/><path d="M35.147 258.685h3.361v7.088h-3.361z" style="fill:#fafafa"/><path d="M47.164 268.554c0 .075-4.445.135-9.928.135-5.484 0-9.928-.061-9.928-.135 0-.075 4.444-.135 9.928-.135 5.483 0 9.928.061 9.928.135z" style="fill:#e0e0e0"/><path d="M35.147 272.971h3.361v7.088h-3.361z" style="fill:#fafafa"/><path d="M248.746 70.622h45.267v118.866h-45.267z" style="fill:#ebebeb"/><path d="M271.38 70.622h22.634v118.866H271.38z" style="fill:#e0e0e0"/><path d="M253.915 56.492H269.9v14.13h-15.985z" style="fill:#ebebeb"/><path d="M266.09 56.492h3.81v14.13h-3.81z" style="fill:#e0e0e0"/><path d="M244.974 69.798h50.365v.824h-50.365z" style="fill:#e0e0e0"/><path d="M257.682 76.784h3.832v8.105h-3.832z" style="fill:#fff"/><path d="M271.38 88.07c0 .086-5.067.155-11.316.155-6.251 0-11.317-.069-11.317-.155 0-.085 5.066-.155 11.317-.155 6.249.001 11.316.07 11.316.155z" style="fill:#e0e0e0"/><path d="M280.512 76.784h3.832v8.105h-3.832z" style="fill:#f5f5f5"/><path d="M294.21 88.07c0 .086-5.067.155-11.316.155-6.252 0-11.318-.069-11.318-.155 0-.085 5.066-.155 11.318-.155 6.249.001 11.316.07 11.316.155z" style="fill:#ebebeb"/><path d="M280.512 92.876h3.832v8.105h-3.832z" style="fill:#f5f5f5"/><path d="M294.21 104.163c0 .086-5.067.155-11.316.155-6.252 0-11.318-.069-11.318-.155s5.066-.155 11.318-.155c6.249 0 11.316.069 11.316.155z" style="fill:#ebebeb"/><path d="M280.512 109.454h3.832v8.106h-3.832z" style="fill:#f5f5f5"/><path d="M294.21 120.741c0 .085-5.067.155-11.316.155-6.252 0-11.318-.069-11.318-.155s5.066-.155 11.318-.155c6.249 0 11.316.069 11.316.155z" style="fill:#ebebeb"/><path d="M280.512 126.032h3.832v8.105h-3.832z" style="fill:#f5f5f5"/><path d="M294.21 137.318c0 .085-5.067.155-11.316.155-6.252 0-11.318-.069-11.318-.155 0-.085 5.066-.155 11.318-.155 6.249.001 11.316.07 11.316.155z" style="fill:#ebebeb"/><path d="M280.512 142.136h3.832v8.105h-3.832z" style="fill:#f5f5f5"/><path d="M294.21 153.422c0 .085-5.067.155-11.316.155-6.252 0-11.318-.069-11.318-.155 0-.085 5.066-.155 11.318-.155 6.249 0 11.316.07 11.316.155z" style="fill:#ebebeb"/><path d="M280.512 158.305h3.832v8.105h-3.832zM280.512 174.685h3.832v8.105h-3.832z" style="fill:#f5f5f5"/><path d="M294.21 169.591c0 .085-5.067.155-11.316.155-6.252 0-11.318-.07-11.318-.155 0-.085 5.066-.155 11.318-.155 6.249 0 11.316.069 11.316.155z" style="fill:#ebebeb"/><path d="M257.682 93.122h3.832v8.105h-3.832z" style="fill:#fff"/><path d="M271.38 104.408c0 .086-5.067.155-11.316.155-6.251 0-11.317-.069-11.317-.155 0-.085 5.066-.155 11.317-.155 6.249.001 11.316.07 11.316.155z" style="fill:#e0e0e0"/><path d="M257.682 109.46h3.832v8.105h-3.832z" style="fill:#fff"/><path d="M271.38 120.746c0 .085-5.067.155-11.316.155-6.251 0-11.317-.069-11.317-.155s5.066-.155 11.317-.155c6.249 0 11.316.07 11.316.155z" style="fill:#e0e0e0"/><path d="M257.682 125.798h3.832v8.105h-3.832z" style="fill:#fff"/><path d="M271.38 137.084c0 .086-5.067.155-11.316.155-6.251 0-11.317-.069-11.317-.155s5.066-.155 11.317-.155c6.249.001 11.316.07 11.316.155z" style="fill:#e0e0e0"/><path d="M257.682 142.136h3.832v8.105h-3.832z" style="fill:#fff"/><path d="M271.38 153.422c0 .085-5.067.155-11.316.155-6.251 0-11.317-.069-11.317-.155 0-.085 5.066-.155 11.317-.155 6.249 0 11.316.07 11.316.155z" style="fill:#e0e0e0"/><path d="M257.682 158.474h3.832v8.105h-3.832z" style="fill:#fff"/><path d="M271.38 169.76c0 .086-5.067.155-11.316.155-6.251 0-11.317-.069-11.317-.155 0-.085 5.066-.155 11.317-.155 6.249 0 11.316.07 11.316.155z" style="fill:#e0e0e0"/><path d="M257.682 174.812h3.832v8.105h-3.832z" style="fill:#fff"/><path d="M132.388 205.136h53.448v101.762h-53.448z" style="fill:#e0e0e0"/><path d="M160.776 205.136h25.06v101.762h-25.06z" style="fill:#ebebeb"/><path d="M143.595 214.711h4.806v11.713h-4.806zM143.595 260.554h4.806v11.713h-4.806zM160.776 231.021c0 .101-6.356.183-14.193.183-7.841 0-14.194-.082-14.194-.183 0-.101 6.354-.183 14.194-.183 7.837.001 14.193.082 14.193.183zM143.595 237.806h4.806v11.713h-4.806zM160.776 254.116c0 .101-6.356.183-14.193.183-7.841 0-14.194-.081-14.194-.183 0-.101 6.354-.182 14.194-.182 7.837 0 14.193.082 14.193.182z" style="fill:#f5f5f5"/><path d="M166.098 214.711h4.806v11.713h-4.806zM176.523 214.711h4.806v11.713h-4.806zM166.098 236.937h4.806v11.713h-4.806zM176.523 236.937h4.806v11.713h-4.806zM166.098 259.163h4.806v11.713h-4.806zM176.523 259.163h4.806v11.713h-4.806zM128.37 202.674h61.484v2.55H128.37z" style="fill:#e0e0e0"/><path d="M186.21 205.464c0 .101-11.946.183-26.679.183-14.738 0-26.681-.082-26.681-.183 0-.101 11.944-.182 26.681-.182 14.733 0 26.679.082 26.679.182z" style="fill:#ebebeb"/><path d="M340.664 131.83h45.701v145.3h-45.701z" style="fill:#f5f5f5"/><path d="M363.515 131.83h22.85v144.9h-22.85z" style="fill:#ebebeb"/><path d="M345.883 117.565h16.138v14.265h-16.138z" style="fill:#f5f5f5"/><path d="M358.175 117.565h3.846v14.265h-3.846z" style="fill:#ebebeb"/><path d="M336.856 131.83v-.832h50.847v.832" style="fill:#e0e0e0"/><path d="M349.685 138.051h3.868v8.183h-3.868z" style="fill:#fafafa"/><path d="M363.515 149.445c0 .087-5.116.156-11.425.156-6.311 0-11.426-.07-11.426-.156s5.115-.156 11.426-.156c6.309 0 11.425.07 11.425.156zM372.735 138.051h3.868v8.183h-3.868zM386.564 149.445c0 .087-5.116.156-11.425.156-6.311 0-11.426-.07-11.426-.156s5.114-.156 11.426-.156c6.309 0 11.425.07 11.425.156zM372.735 154.298h3.868v8.183h-3.868zM386.564 165.692c0 .086-5.116.156-11.425.156-6.311 0-11.426-.07-11.426-.156s5.114-.156 11.426-.156c6.309 0 11.425.07 11.425.156zM372.735 171.034h3.868v8.183h-3.868zM386.564 182.428c0 .086-5.116.156-11.425.156-6.311 0-11.426-.07-11.426-.156s5.114-.156 11.426-.156c6.309 0 11.425.07 11.425.156zM372.735 187.771h3.868v8.183h-3.868zM386.564 199.165c0 .086-5.116.156-11.425.156-6.311 0-11.426-.07-11.426-.156s5.114-.156 11.426-.156c6.309 0 11.425.07 11.425.156zM372.735 204.029h3.868v8.183h-3.868zM386.564 215.423c0 .086-5.116.156-11.425.156-6.311 0-11.426-.07-11.426-.156s5.114-.156 11.426-.156c6.309 0 11.425.07 11.425.156zM372.735 220.352h3.868v8.183h-3.868zM372.735 236.889h3.868v8.183h-3.868zM386.564 231.747c0 .086-5.116.156-11.425.156-6.311 0-11.426-.07-11.426-.156s5.114-.156 11.426-.156c6.309-.001 11.425.069 11.425.156z" style="fill:#e0e0e0"/><path d="M349.685 154.545h3.868v8.183h-3.868z" style="fill:#fafafa"/><path d="M363.515 165.94c0 .086-5.116.156-11.425.156-6.311 0-11.426-.07-11.426-.156s5.115-.156 11.426-.156c6.309 0 11.425.07 11.425.156z" style="fill:#e0e0e0"/><path d="M349.685 171.04h3.868v8.183h-3.868z" style="fill:#fafafa"/><path d="M363.515 182.434c0 .086-5.116.156-11.425.156-6.311 0-11.426-.07-11.426-.156s5.115-.156 11.426-.156c6.309 0 11.425.07 11.425.156z" style="fill:#e0e0e0"/><path d="M349.685 187.534h3.868v8.183h-3.868z" style="fill:#fafafa"/><path d="M363.515 198.929c0 .086-5.116.156-11.425.156-6.311 0-11.426-.07-11.426-.156s5.115-.156 11.426-.156c6.309-.001 11.425.069 11.425.156z" style="fill:#e0e0e0"/><path d="M349.685 204.029h3.868v8.183h-3.868z" style="fill:#fafafa"/><path d="M363.515 215.423c0 .086-5.116.156-11.425.156-6.311 0-11.426-.07-11.426-.156s5.115-.156 11.426-.156c6.309 0 11.425.07 11.425.156z" style="fill:#e0e0e0"/><path d="M349.685 220.523h3.868v8.183h-3.868z" style="fill:#fafafa"/><path d="M363.515 231.917c0 .086-5.116.156-11.425.156-6.311 0-11.426-.07-11.426-.156s5.115-.156 11.426-.156c6.309 0 11.425.07 11.425.156z" style="fill:#e0e0e0"/><path d="M349.685 237.017h3.868v8.183h-3.868z" style="fill:#fafafa"/><path d="M340.865 208.655h75.005v99.246h-75.005z" style="fill:#ebebeb"/><path d="M380.702 208.655h35.168v99.246h-35.168z" style="fill:#e0e0e0"/><path d="M356.592 222.092h6.744v16.437h-6.744zM356.592 286.424h6.744v16.438h-6.744zM380.702 244.98c0 .185-8.918.335-19.917.335-11.003 0-19.919-.15-19.919-.335 0-.184 8.917-.334 19.919-.334 10.999 0 19.917.15 19.917.334zM356.592 254.502h6.744v16.437h-6.744zM380.702 277.39c0 .185-8.918.334-19.917.334-11.003 0-19.919-.15-19.919-.334 0-.184 8.917-.334 19.919-.334 10.999 0 19.917.15 19.917.334zM388.171 222.092h6.744v16.437h-6.744zM402.801 222.092h6.744v16.437h-6.744zM388.171 253.282h6.744v16.437h-6.744zM402.801 253.282h6.744v16.437h-6.744zM388.171 284.473h6.744v16.437h-6.744zM402.801 284.473h6.744v16.437h-6.744z" style="fill:#f5f5f5"/><path d="M335.227 205.2h86.281v3.579h-86.281z" style="fill:#e0e0e0"/><path d="M416.394 209.116c0 .185-16.764.335-37.439.335-20.682 0-37.443-.15-37.443-.335 0-.184 16.761-.334 37.443-.334 20.675 0 37.439.15 37.439.334zM337.455 307.372h-75.603l-.329-119.868h75.603z" style="fill:#ebebeb"/><path d="M299.324 187.504h37.801v119.868h-37.801z" style="fill:#e0e0e0"/><path d="M270.156 163.906h26.697v23.598h-26.697z" style="fill:#ebebeb"/><path d="M290.49 163.906h6.363v23.598h-6.363z" style="fill:#e0e0e0"/><path d="M255.223 186.127h84.116v1.377h-84.116z" style="fill:#e0e0e0"/><path d="M276.447 197.796h6.399v13.537h-6.399z" style="fill:#fff"/><path d="M299.324 216.646c0 .143-8.463.258-18.9.258-10.44 0-18.901-.116-18.901-.258 0-.143 8.461-.259 18.901-.259 10.438 0 18.9.116 18.9.259z" style="fill:#e0e0e0"/><path d="M314.577 197.796h6.399v13.537h-6.399z" style="fill:#f5f5f5"/><path d="M337.455 216.646c0 .143-8.463.258-18.9.258-10.441 0-18.901-.116-18.901-.258 0-.143 8.461-.259 18.901-.259 10.437 0 18.9.116 18.9.259z" style="fill:#ebebeb"/><path d="M314.577 224.672h6.399v13.537h-6.399z" style="fill:#f5f5f5"/><path d="M337.455 243.522c0 .143-8.463.258-18.9.258-10.441 0-18.901-.116-18.901-.258 0-.143 8.461-.258 18.901-.258 10.437-.001 18.9.115 18.9.258z" style="fill:#ebebeb"/><path d="M314.577 252.359h6.399v13.537h-6.399z" style="fill:#f5f5f5"/><path d="M337.455 271.209c0 .143-8.463.258-18.9.258-10.441 0-18.901-.116-18.901-.258 0-.143 8.461-.258 18.901-.258 10.437 0 18.9.115 18.9.258z" style="fill:#ebebeb"/><path d="M314.577 280.046h6.399v13.537h-6.399z" style="fill:#f5f5f5"/><path d="M337.455 298.896c0 .143-8.463.259-18.9.259-10.441 0-18.901-.116-18.901-.259 0-.143 8.461-.258 18.901-.258 10.437 0 18.9.116 18.9.258z" style="fill:#ebebeb"/><path d="M276.447 225.082h6.399v13.537h-6.399z" style="fill:#fff"/><path d="M299.324 243.932c0 .143-8.463.259-18.9.259-10.44 0-18.901-.116-18.901-.259 0-.142 8.461-.258 18.901-.258 10.438 0 18.9.115 18.9.258z" style="fill:#e0e0e0"/><path d="M276.447 252.369h6.399v13.537h-6.399z" style="fill:#fff"/><path d="M299.324 271.219c0 .143-8.463.259-18.9.259-10.44 0-18.901-.116-18.901-.259 0-.143 8.461-.258 18.901-.258 10.438-.001 18.9.115 18.9.258z" style="fill:#e0e0e0"/><path d="M276.447 279.655h6.399v13.537h-6.399z" style="fill:#fff"/><path d="M299.324 298.505c0 .143-8.463.259-18.9.259-10.44 0-18.901-.116-18.901-.259 0-.143 8.461-.258 18.901-.258 10.438 0 18.9.115 18.9.258z" style="fill:#e0e0e0"/><path d="M182.352 86.181h62.031V306.53h-62.031z" style="fill:#ebebeb"/><path d="M187.389 93.784h5.524v11.647h-5.524zM198.997 93.784h5.524v11.647h-5.524zM210.606 93.784h5.524v11.647h-5.524zM222.215 93.784h5.524v11.647h-5.524zM233.823 93.784h5.524v11.647h-5.524zM187.389 110.075h5.524v11.647h-5.524zM198.997 110.075h5.524v11.647h-5.524zM210.606 110.075h5.524v11.647h-5.524zM222.215 110.075h5.524v11.647h-5.524zM233.823 110.075h5.524v11.647h-5.524zM187.389 126.366h5.524v11.647h-5.524zM198.997 126.366h5.524v11.647h-5.524zM210.606 126.366h5.524v11.647h-5.524zM222.215 126.366h5.524v11.647h-5.524zM233.823 126.366h5.524v11.647h-5.524zM187.389 142.656h5.524v11.647h-5.524zM198.997 142.656h5.524v11.647h-5.524zM210.606 142.656h5.524v11.647h-5.524zM222.215 142.656h5.524v11.647h-5.524zM233.823 142.656h5.524v11.647h-5.524zM187.389 158.947h5.524v11.647h-5.524zM198.997 158.947h5.524v11.647h-5.524zM210.606 158.947h5.524v11.647h-5.524zM222.215 158.947h5.524v11.647h-5.524zM233.823 158.947h5.524v11.647h-5.524zM187.389 175.238h5.524v11.647h-5.524zM198.997 175.238h5.524v11.647h-5.524zM210.606 175.238h5.524v11.647h-5.524zM222.215 175.238h5.524v11.647h-5.524zM233.823 175.238h5.524v11.647h-5.524zM187.389 191.528h5.524v11.647h-5.524zM198.997 191.528h5.524v11.647h-5.524zM210.606 191.528h5.524v11.647h-5.524zM222.215 191.528h5.524v11.647h-5.524zM233.823 191.528h5.524v11.647h-5.524zM187.389 207.819h5.524v11.647h-5.524zM198.997 207.819h5.524v11.647h-5.524zM210.606 207.819h5.524v11.647h-5.524zM222.215 207.819h5.524v11.647h-5.524zM233.823 207.819h5.524v11.647h-5.524zM187.389 224.109h5.524v11.647h-5.524zM198.997 224.109h5.524v11.647h-5.524zM210.606 224.109h5.524v11.647h-5.524zM222.215 224.109h5.524v11.647h-5.524zM233.823 224.109h5.524v11.647h-5.524zM187.389 240.4h5.524v11.648h-5.524zM198.997 240.4h5.524v11.648h-5.524zM210.606 240.4h5.524v11.648h-5.524zM222.215 240.4h5.524v11.648h-5.524zM233.823 240.4h5.524v11.648h-5.524zM187.389 256.691h5.524v11.647h-5.524zM198.997 256.691h5.524v11.647h-5.524zM210.606 256.691h5.524v11.647h-5.524zM222.215 256.691h5.524v11.647h-5.524zM233.823 256.691h5.524v11.647h-5.524zM187.389 272.982h5.524v11.647h-5.524zM198.997 272.982h5.524v11.647h-5.524zM210.606 272.982h5.524v11.647h-5.524zM222.215 272.982h5.524v11.647h-5.524zM233.823 272.982h5.524v11.647h-5.524zM187.389 288.372h5.524v11.647h-5.524zM198.997 288.372h5.524v11.647h-5.524zM210.606 288.372h5.524v11.647h-5.524zM222.215 288.372h5.524v11.647h-5.524zM233.823 288.372h5.524v11.647h-5.524z" style="fill:#fff"/><path d="M244.383 86.181h27.096V306.53h-27.096z" style="fill:#e0e0e0"/><path d="M210.606 93.784h5.524v11.647h-5.524zM222.215 93.784h5.524v11.647h-5.524zM233.823 93.784h5.524v11.647h-5.524zM210.606 110.075h5.524v11.647h-5.524zM222.215 110.075h5.524v11.647h-5.524zM233.823 110.075h5.524v11.647h-5.524zM210.606 126.366h5.524v11.647h-5.524zM222.215 126.366h5.524v11.647h-5.524zM233.823 126.366h5.524v11.647h-5.524zM210.606 142.656h5.524v11.647h-5.524zM222.215 142.656h5.524v11.647h-5.524zM233.823 142.656h5.524v11.647h-5.524zM210.606 158.947h5.524v11.647h-5.524zM222.215 158.947h5.524v11.647h-5.524zM233.823 158.947h5.524v11.647h-5.524zM210.606 175.238h5.524v11.647h-5.524zM222.215 175.238h5.524v11.647h-5.524zM233.823 175.238h5.524v11.647h-5.524zM210.606 191.528h5.524v11.647h-5.524zM222.215 191.528h5.524v11.647h-5.524zM233.823 191.528h5.524v11.647h-5.524zM210.606 207.819h5.524v11.647h-5.524zM222.215 207.819h5.524v11.647h-5.524zM233.823 207.819h5.524v11.647h-5.524zM210.606 224.109h5.524v11.647h-5.524zM222.215 224.109h5.524v11.647h-5.524zM233.823 224.109h5.524v11.647h-5.524zM210.606 240.4h5.524v11.648h-5.524zM222.215 240.4h5.524v11.648h-5.524zM233.823 240.4h5.524v11.648h-5.524zM210.606 256.691h5.524v11.647h-5.524zM222.215 256.691h5.524v11.647h-5.524zM233.823 256.691h5.524v11.647h-5.524zM210.606 272.982h5.524v11.647h-5.524zM222.215 272.982h5.524v11.647h-5.524zM233.823 272.982h5.524v11.647h-5.524zM210.606 288.372h5.524v11.647h-5.524zM222.215 288.372h5.524v11.647h-5.524zM233.823 288.372h5.524v11.647h-5.524z" style="fill:#fff"/><path d="M250.514 93.784h5.524v11.647h-5.524zM262.123 93.784h5.524v11.647h-5.524zM250.514 110.075h5.524v11.647h-5.524zM262.123 110.075h5.524v11.647h-5.524zM250.514 126.366h5.524v11.647h-5.524zM262.123 126.366h5.524v11.647h-5.524zM250.514 142.656h5.524v11.647h-5.524zM262.123 142.656h5.524v11.647h-5.524zM250.514 158.947h5.524v11.647h-5.524zM262.123 158.947h5.524v11.647h-5.524zM250.514 175.238h5.524v11.647h-5.524zM262.123 175.238h5.524v11.647h-5.524zM250.514 191.528h5.524v11.647h-5.524zM262.123 191.528h5.524v11.647h-5.524zM250.514 207.819h5.524v11.647h-5.524zM262.123 207.819h5.524v11.647h-5.524zM250.514 224.109h5.524v11.647h-5.524zM262.123 224.109h5.524v11.647h-5.524zM250.514 240.4h5.524v11.648h-5.524zM262.123 240.4h5.524v11.648h-5.524zM250.514 256.691h5.524v11.647h-5.524zM262.123 256.691h5.524v11.647h-5.524zM250.514 272.982h5.524v11.647h-5.524zM262.123 272.982h5.524v11.647h-5.524zM250.514 288.372h5.524v11.647h-5.524zM262.123 288.372h5.524v11.647h-5.524z" style="fill:#ebebeb"/><path d="m346.148 163.331-65.026 18.456v125.051h65.026z" style="fill:#e0e0e0"/><path d="m286.078 183.031.514 114.991h52.894V167.861z" style="fill:#fff"/><path d="M300.38 300.641c-.251 0-.455-27.594-.455-61.625 0-34.043.204-61.631.455-61.631s.455 27.588.455 61.631c-.001 34.031-.204 61.625-.455 61.625zM322.612 300.641c-.251 0-.455-29.131-.455-65.058 0-35.939.204-65.064.455-65.064s.455 29.125.455 65.064c-.001 35.927-.204 65.058-.455 65.058z" style="fill:#e0e0e0"/><path d="M343.137 200.586c0 .251-13.172.455-29.415.455-16.25 0-29.418-.203-29.418-.455 0-.251 13.169-.455 29.418-.455 16.243.001 29.415.204 29.415.455zM342.587 235.776c0 .251-13.171.455-29.415.455-16.25 0-29.418-.204-29.418-.455s13.169-.455 29.418-.455c16.244.001 29.415.204 29.415.455zM345.886 271.241c0 .251-13.664.455-30.515.455-16.857 0-30.518-.204-30.518-.455s13.661-.455 30.518-.455c16.851 0 30.515.204 30.515.455zM345.902 163.331c.069.242-14.323 4.538-32.141 9.595-17.824 5.059-32.324 8.963-32.393 8.721-.069-.241 14.32-4.537 32.144-9.596 17.818-5.057 32.321-8.962 32.39-8.72zM303.353 226.867c-.178-.178 3.02-3.664 7.142-7.786 4.123-4.123 7.608-7.32 7.786-7.143.177.177-3.02 3.663-7.143 7.786-4.122 4.123-7.608 7.321-7.785 7.143zM313.292 212.712c.173.182-.978 1.559-2.572 3.075-1.594 1.517-3.026 2.598-3.199 2.416-.173-.182.978-1.558 2.572-3.075 1.594-1.517 3.026-2.598 3.199-2.416zM316.961 252.523c.179.176-2.552 3.247-6.099 6.859-3.548 3.613-6.57 6.398-6.749 6.222-.179-.176 2.551-3.246 6.1-6.859 3.547-3.612 6.568-6.398 6.748-6.222zM311.969 254.081c.186.168-.721 1.475-2.025 2.919-1.305 1.444-2.514 2.478-2.7 2.309-.186-.169.72-1.475 2.025-2.919 1.305-1.443 2.513-2.477 2.7-2.309zM334.431 183.055c.191.163-1.166 2.065-3.031 4.248-1.866 2.183-3.532 3.82-3.723 3.657-.191-.163 1.166-2.065 3.031-4.248 1.865-2.183 3.532-3.82 3.723-3.657zM332.916 180.744c.186.169-.778 1.536-2.153 3.053-1.376 1.518-2.641 2.611-2.828 2.442-.186-.168.778-1.535 2.154-3.053 1.375-1.517 2.641-2.61 2.827-2.442zM295.495 283.7c.205.145-.626 1.67-1.855 3.406-1.23 1.736-2.392 3.025-2.598 2.88-.205-.145.625-1.67 1.855-3.406 1.231-1.736 2.393-3.025 2.598-2.88zM293.924 281.604c.183.172-.548 1.249-1.632 2.406-1.085 1.157-2.113 1.956-2.297 1.784-.183-.172.548-1.249 1.633-2.406 1.084-1.156 2.113-1.955 2.296-1.784z" style="fill:#e0e0e0"/><path d="M370.976 132.195h55.268v175.156h-55.268z" style="fill:#f5f5f5"/><path d="M398.61 132.195h27.634v174.674H398.61z" style="fill:#ebebeb"/><path d="M377.287 115h19.516v17.195h-19.516z" style="fill:#f5f5f5"/><path d="M392.152 115h4.652v17.195h-4.652z" style="fill:#ebebeb"/><path d="M366.37 132.195v-1.003h61.491v1.003" style="fill:#e0e0e0"/><path d="M381.886 139.695h4.678v9.864h-4.678z" style="fill:#fafafa"/><path d="M398.61 153.431c0 .104-6.187.188-13.816.188-7.632 0-13.818-.084-13.818-.188s6.185-.188 13.818-.188c7.63-.001 13.816.084 13.816.188zM409.76 139.695h4.678v9.864h-4.678zM426.484 153.431c0 .104-6.187.188-13.816.188-7.633 0-13.817-.084-13.817-.188s6.185-.188 13.817-.188c7.63-.001 13.816.084 13.816.188zM409.76 159.28h4.678v9.864h-4.678zM426.484 173.015c0 .104-6.187.188-13.816.188-7.633 0-13.817-.085-13.817-.188 0-.104 6.185-.188 13.817-.188 7.63 0 13.816.084 13.816.188zM409.76 179.455h4.678v9.864h-4.678zM426.484 193.191c0 .104-6.187.188-13.816.188-7.633 0-13.817-.084-13.817-.188s6.185-.188 13.817-.188c7.63 0 13.816.084 13.816.188zM409.76 199.63h4.678v9.864h-4.678zM426.484 213.366c0 .104-6.187.188-13.816.188-7.633 0-13.817-.084-13.817-.188s6.185-.188 13.817-.188c7.63 0 13.816.084 13.816.188zM409.76 219.229h4.678v9.864h-4.678zM426.484 232.965c0 .104-6.187.188-13.816.188-7.633 0-13.817-.084-13.817-.188s6.185-.188 13.817-.188c7.63-.001 13.816.084 13.816.188zM409.76 238.906h4.678v9.865h-4.678zM409.76 258.842h4.678v9.864h-4.678zM426.484 252.643c0 .104-6.187.188-13.816.188-7.633 0-13.817-.085-13.817-.188 0-.104 6.185-.188 13.817-.188 7.63-.001 13.816.083 13.816.188z" style="fill:#e0e0e0"/><path d="M381.886 159.578h4.678v9.864h-4.678z" style="fill:#fafafa"/><path d="M398.61 173.314c0 .104-6.187.188-13.816.188-7.632 0-13.818-.084-13.818-.188s6.185-.188 13.818-.188c7.63 0 13.816.084 13.816.188z" style="fill:#e0e0e0"/><path d="M381.886 179.462h4.678v9.864h-4.678z" style="fill:#fafafa"/><path d="M398.61 193.198c0 .104-6.187.188-13.816.188-7.632 0-13.818-.084-13.818-.188s6.185-.188 13.818-.188c7.63-.001 13.816.084 13.816.188z" style="fill:#e0e0e0"/><path d="M381.886 199.345h4.678v9.864h-4.678z" style="fill:#fafafa"/><path d="M398.61 213.081c0 .104-6.187.188-13.816.188-7.632 0-13.818-.084-13.818-.188s6.185-.188 13.818-.188c7.63 0 13.816.084 13.816.188z" style="fill:#e0e0e0"/><path d="M381.886 219.229h4.678v9.864h-4.678z" style="fill:#fafafa"/><path d="M398.61 232.965c0 .104-6.187.188-13.816.188-7.632 0-13.818-.084-13.818-.188s6.185-.188 13.818-.188c7.63-.001 13.816.084 13.816.188z" style="fill:#e0e0e0"/><path d="M381.886 239.112h4.678v9.864h-4.678z" style="fill:#fafafa"/><path d="M398.61 252.848c0 .104-6.187.188-13.816.188-7.632 0-13.818-.084-13.818-.188s6.185-.188 13.818-.188c7.63 0 13.816.084 13.816.188z" style="fill:#e0e0e0"/><path d="M381.886 258.996h4.678v9.864h-4.678z" style="fill:#fafafa"/><path d="M331.88 181.863h39.71v125.852h-39.71z" style="fill:#f5f5f5"/><path d="M351.735 181.863h19.855v125.505h-19.855z" style="fill:#ebebeb"/><path d="M336.414 169.508h14.023v12.355h-14.023z" style="fill:#f5f5f5"/><path d="M347.095 169.508h3.342v12.355h-3.342z" style="fill:#ebebeb"/><path d="M328.57 181.863v-.72h44.182v.72" style="fill:#e0e0e0"/><path d="M339.718 187.252h3.361v7.088h-3.361z" style="fill:#fafafa"/><path d="M351.735 197.121c0 .075-4.445.135-9.927.135-5.484 0-9.928-.061-9.928-.135 0-.075 4.444-.135 9.928-.135 5.482 0 9.927.061 9.927.135zM359.746 187.252h3.361v7.088h-3.361zM371.763 197.121c0 .075-4.445.135-9.927.135-5.484 0-9.928-.061-9.928-.135 0-.075 4.444-.135 9.928-.135 5.482 0 9.927.061 9.927.135zM359.746 201.324h3.361v7.088h-3.361zM371.763 211.193c0 .075-4.445.135-9.927.135-5.484 0-9.928-.061-9.928-.135 0-.075 4.444-.135 9.928-.135 5.482 0 9.927.06 9.927.135zM359.746 215.82h3.361v7.088h-3.361zM371.763 225.69c0 .075-4.445.135-9.927.135-5.484 0-9.928-.061-9.928-.135 0-.075 4.444-.135 9.928-.135 5.482-.001 9.927.06 9.927.135zM359.746 230.317h3.361v7.088h-3.361zM371.763 240.186c0 .075-4.445.136-9.927.136-5.484 0-9.928-.061-9.928-.136 0-.074 4.444-.135 9.928-.135 5.482 0 9.927.06 9.927.135zM359.746 244.398h3.361v7.088h-3.361zM371.763 254.268c0 .075-4.445.136-9.927.136-5.484 0-9.928-.061-9.928-.136 0-.074 4.444-.135 9.928-.135 5.482-.001 9.927.06 9.927.135zM359.746 258.537h3.361v7.088h-3.361zM359.746 272.861h3.361v7.088h-3.361zM371.763 268.406c0 .075-4.445.135-9.927.135-5.484 0-9.928-.061-9.928-.135 0-.075 4.444-.135 9.928-.135 5.482 0 9.927.061 9.927.135z" style="fill:#e0e0e0"/><path d="M339.718 201.539h3.361v7.088h-3.361z" style="fill:#fafafa"/><path d="M351.735 211.408c0 .075-4.445.135-9.927.135-5.484 0-9.928-.06-9.928-.135 0-.075 4.444-.135 9.928-.135 5.482 0 9.927.06 9.927.135z" style="fill:#e0e0e0"/><path d="M339.718 215.825h3.361v7.088h-3.361z" style="fill:#fafafa"/><path d="M351.735 225.695c0 .075-4.445.135-9.927.135-5.484 0-9.928-.06-9.928-.135 0-.075 4.444-.135 9.928-.135 5.482-.001 9.927.06 9.927.135z" style="fill:#e0e0e0"/><path d="M339.718 230.112h3.361v7.088h-3.361z" style="fill:#fafafa"/><path d="M351.735 239.981c0 .075-4.445.135-9.927.135-5.484 0-9.928-.06-9.928-.135 0-.075 4.444-.135 9.928-.135 5.482 0 9.927.061 9.927.135z" style="fill:#e0e0e0"/><path d="M339.718 244.398h3.361v7.088h-3.361z" style="fill:#fafafa"/><path d="M351.735 254.268c0 .075-4.445.136-9.927.136-5.484 0-9.928-.061-9.928-.136 0-.074 4.444-.135 9.928-.135 5.482-.001 9.927.06 9.927.135z" style="fill:#e0e0e0"/><path d="M339.718 258.685h3.361v7.088h-3.361z" style="fill:#fafafa"/><path d="M351.735 268.554c0 .075-4.445.135-9.927.135-5.484 0-9.928-.061-9.928-.135 0-.075 4.444-.135 9.928-.135 5.482 0 9.927.061 9.927.135z" style="fill:#e0e0e0"/><path d="M339.718 272.971h3.361v7.088h-3.361z" style="fill:#fafafa"/><path d="M436.88 205.092h53.448v101.762H436.88z" style="fill:#e0e0e0"/><path d="M465.268 205.092h25.06v101.762h-25.06z" style="fill:#ebebeb"/><path d="M448.087 214.667h4.806v11.713h-4.806zM448.087 260.51h4.806v11.713h-4.806zM465.268 230.977c0 .101-6.356.183-14.193.183-7.84 0-14.194-.082-14.194-.183 0-.101 6.354-.183 14.194-.183 7.837.001 14.193.083 14.193.183zM448.087 237.762h4.806v11.713h-4.806zM465.268 254.073c0 .101-6.356.183-14.193.183-7.84 0-14.194-.081-14.194-.183 0-.101 6.354-.182 14.194-.182 7.837-.001 14.193.081 14.193.182z" style="fill:#f5f5f5"/><path d="M470.589 214.667h4.806v11.713h-4.806zM481.015 214.667h4.806v11.713h-4.806zM470.589 236.893h4.806v11.713h-4.806zM481.015 236.893h4.806v11.713h-4.806zM470.589 259.119h4.806v11.713h-4.806zM481.015 259.119h4.806v11.713h-4.806zM432.862 202.631h61.484v2.55h-61.484z" style="fill:#e0e0e0"/><path d="M490.702 205.421c0 .101-11.946.183-26.679.183-14.738 0-26.681-.082-26.681-.183 0-.101 11.944-.183 26.681-.183 14.732 0 26.679.082 26.679.183z" style="fill:#ebebeb"/><path d="M645.156 131.786h45.701v145.3h-45.701z" style="fill:#f5f5f5"/><path d="M668.007 131.786h22.85v144.9h-22.85z" style="fill:#ebebeb"/><path d="M650.375 117.521h16.138v14.265h-16.138z" style="fill:#f5f5f5"/><path d="M662.667 117.521h3.846v14.265h-3.846z" style="fill:#ebebeb"/><path d="M641.348 131.786v-.832h50.846v.832" style="fill:#e0e0e0"/><path d="M654.177 138.007h3.868v8.183h-3.868z" style="fill:#fafafa"/><path d="M668.007 149.402c0 .087-5.116.156-11.425.156-6.311 0-11.426-.07-11.426-.156s5.115-.156 11.426-.156c6.309-.001 11.425.069 11.425.156zM677.227 138.007h3.868v8.183h-3.868zM691.056 149.402c0 .087-5.116.156-11.425.156-6.311 0-11.426-.07-11.426-.156s5.114-.156 11.426-.156c6.309-.001 11.425.069 11.425.156zM677.227 154.254h3.868v8.183h-3.868zM691.056 165.648c0 .086-5.116.156-11.425.156-6.311 0-11.426-.07-11.426-.156s5.114-.156 11.426-.156c6.309 0 11.425.07 11.425.156zM677.227 170.99h3.868v8.183h-3.868zM691.056 182.385c0 .086-5.116.156-11.425.156-6.311 0-11.426-.07-11.426-.156s5.114-.156 11.426-.156c6.309 0 11.425.069 11.425.156zM677.227 187.727h3.868v8.183h-3.868zM691.056 199.121c0 .086-5.116.156-11.425.156-6.311 0-11.426-.07-11.426-.156s5.114-.156 11.426-.156c6.309 0 11.425.07 11.425.156zM677.227 203.985h3.868v8.183h-3.868zM691.056 215.379c0 .086-5.116.156-11.425.156-6.311 0-11.426-.07-11.426-.156s5.114-.156 11.426-.156c6.309 0 11.425.07 11.425.156zM677.227 220.308h3.868v8.183h-3.868zM677.227 236.846h3.868v8.183h-3.868zM691.056 231.703c0 .086-5.116.156-11.425.156-6.311 0-11.426-.07-11.426-.156s5.114-.156 11.426-.156c6.309 0 11.425.07 11.425.156z" style="fill:#e0e0e0"/><path d="M654.177 154.502h3.868v8.183h-3.868z" style="fill:#fafafa"/><path d="M668.007 165.896c0 .086-5.116.156-11.425.156-6.311 0-11.426-.07-11.426-.156s5.115-.156 11.426-.156c6.309 0 11.425.07 11.425.156z" style="fill:#e0e0e0"/><path d="M654.177 170.996h3.868v8.183h-3.868z" style="fill:#fafafa"/><path d="M668.007 182.391c0 .086-5.116.156-11.425.156-6.311 0-11.426-.07-11.426-.156s5.115-.156 11.426-.156c6.309-.001 11.425.069 11.425.156z" style="fill:#e0e0e0"/><path d="M654.177 187.49h3.868v8.183h-3.868z" style="fill:#fafafa"/><path d="M668.007 198.885c0 .086-5.116.156-11.425.156-6.311 0-11.426-.07-11.426-.156s5.115-.156 11.426-.156c6.309 0 11.425.07 11.425.156z" style="fill:#e0e0e0"/><path d="M654.177 203.985h3.868v8.183h-3.868z" style="fill:#fafafa"/><path d="M668.007 215.379c0 .086-5.116.156-11.425.156-6.311 0-11.426-.07-11.426-.156s5.115-.156 11.426-.156c6.309 0 11.425.07 11.425.156z" style="fill:#e0e0e0"/><path d="M654.177 220.479h3.868v8.183h-3.868z" style="fill:#fafafa"/><path d="M668.007 231.874c0 .086-5.116.156-11.425.156-6.311 0-11.426-.07-11.426-.156s5.115-.156 11.426-.156c6.309-.001 11.425.069 11.425.156z" style="fill:#e0e0e0"/><path d="M654.177 236.973h3.868v8.183h-3.868z" style="fill:#fafafa"/><path d="M645.357 208.611h75.005v99.246h-75.005z" style="fill:#ebebeb"/><path d="M685.194 208.611h35.168v99.246h-35.168z" style="fill:#e0e0e0"/><path d="M661.084 222.048h6.744v16.437h-6.744zM661.084 286.38h6.744v16.438h-6.744zM685.194 244.936c0 .185-8.918.335-19.917.335-11.003 0-19.919-.15-19.919-.335 0-.184 8.917-.334 19.919-.334 10.999 0 19.917.15 19.917.334zM661.084 254.458h6.744v16.437h-6.744zM685.194 277.347c0 .185-8.918.334-19.917.334-11.003 0-19.919-.15-19.919-.334 0-.184 8.917-.334 19.919-.334 10.999-.001 19.917.149 19.917.334zM692.662 222.048h6.744v16.437h-6.744zM707.293 222.048h6.744v16.437h-6.744zM692.662 253.239h6.744v16.437h-6.744zM707.293 253.239h6.744v16.437h-6.744zM692.662 284.429h6.744v16.437h-6.744zM707.293 284.429h6.744v16.437h-6.744z" style="fill:#f5f5f5"/><path d="M639.719 205.157h86.282v3.579h-86.282z" style="fill:#e0e0e0"/><path d="M720.886 209.072c0 .185-16.764.335-37.439.335-20.682 0-37.443-.15-37.443-.335 0-.184 16.761-.334 37.443-.334 20.675 0 37.439.15 37.439.334zM641.947 307.328h-75.603l-.329-119.868h75.603z" style="fill:#ebebeb"/><path d="M603.816 187.46h37.801v119.868h-37.801z" style="fill:#e0e0e0"/><path d="M574.648 163.862h26.697v23.598h-26.697z" style="fill:#ebebeb"/><path d="M594.982 163.862h6.363v23.598h-6.363z" style="fill:#e0e0e0"/><path d="M559.715 186.084h84.116v1.377h-84.116z" style="fill:#e0e0e0"/><path d="M580.938 197.752h6.399v13.537h-6.399z" style="fill:#fff"/><path d="M603.816 216.602c0 .143-8.463.258-18.9.258-10.44 0-18.901-.116-18.901-.258 0-.143 8.461-.259 18.901-.259 10.438 0 18.9.116 18.9.259z" style="fill:#e0e0e0"/><path d="M619.069 197.752h6.399v13.537h-6.399z" style="fill:#f5f5f5"/><path d="M641.946 216.602c0 .143-8.463.258-18.9.258-10.441 0-18.901-.116-18.901-.258 0-.143 8.461-.259 18.901-.259 10.438 0 18.9.116 18.9.259z" style="fill:#ebebeb"/><path d="M619.069 224.628h6.399v13.537h-6.399z" style="fill:#f5f5f5"/><path d="M641.946 243.478c0 .143-8.463.258-18.9.258-10.441 0-18.901-.116-18.901-.258 0-.143 8.461-.258 18.901-.258 10.438 0 18.9.115 18.9.258z" style="fill:#ebebeb"/><path d="M619.069 252.316h6.399v13.537h-6.399z" style="fill:#f5f5f5"/><path d="M641.946 271.165c0 .143-8.463.258-18.9.258-10.441 0-18.901-.116-18.901-.258 0-.143 8.461-.258 18.901-.258 10.438 0 18.9.115 18.9.258z" style="fill:#ebebeb"/><path d="M619.069 280.003h6.399v13.537h-6.399z" style="fill:#f5f5f5"/><path d="M641.946 298.853c0 .143-8.463.259-18.9.259-10.441 0-18.901-.116-18.901-.259 0-.143 8.461-.258 18.901-.258 10.438-.001 18.9.115 18.9.258z" style="fill:#ebebeb"/><path d="M580.938 225.038h6.399v13.537h-6.399z" style="fill:#fff"/><path d="M603.816 243.888c0 .143-8.463.259-18.9.259-10.44 0-18.901-.116-18.901-.259 0-.143 8.461-.258 18.901-.258 10.438 0 18.9.116 18.9.258z" style="fill:#e0e0e0"/><path d="M580.938 252.325h6.399v13.537h-6.399z" style="fill:#fff"/><path d="M603.816 271.175c0 .143-8.463.259-18.9.259-10.44 0-18.901-.116-18.901-.259 0-.143 8.461-.258 18.901-.258 10.438-.001 18.9.115 18.9.258z" style="fill:#e0e0e0"/><path d="M580.938 279.612h6.399v13.537h-6.399z" style="fill:#fff"/><path d="M603.816 298.461c0 .143-8.463.259-18.9.259-10.44 0-18.901-.116-18.901-.259 0-.143 8.461-.258 18.901-.258 10.438 0 18.9.116 18.9.258z" style="fill:#e0e0e0"/><path d="M486.923 87.022h62.031v220.349h-62.031z" style="fill:#ebebeb"/><path d="M491.96 94.625h5.524v11.647h-5.524zM503.568 94.625h5.524v11.647h-5.524zM515.177 94.625h5.523v11.647h-5.523zM526.786 94.625h5.524v11.647h-5.524zM538.394 94.625h5.524v11.647h-5.524zM491.96 110.916h5.524v11.647h-5.524zM503.568 110.916h5.524v11.647h-5.524zM515.177 110.916h5.523v11.647h-5.523zM526.786 110.916h5.524v11.647h-5.524zM538.394 110.916h5.524v11.647h-5.524zM491.96 127.207h5.524v11.647h-5.524zM503.568 127.207h5.524v11.647h-5.524zM515.177 127.207h5.523v11.647h-5.523zM526.786 127.207h5.524v11.647h-5.524zM538.394 127.207h5.524v11.647h-5.524zM491.96 143.497h5.524v11.647h-5.524zM503.568 143.497h5.524v11.647h-5.524zM515.177 143.497h5.523v11.647h-5.523zM526.786 143.497h5.524v11.647h-5.524zM538.394 143.497h5.524v11.647h-5.524zM491.96 159.788h5.524v11.647h-5.524zM503.568 159.788h5.524v11.647h-5.524zM515.177 159.788h5.523v11.647h-5.523zM526.786 159.788h5.524v11.647h-5.524zM538.394 159.788h5.524v11.647h-5.524zM491.96 176.079h5.524v11.647h-5.524zM503.568 176.079h5.524v11.647h-5.524zM515.177 176.079h5.523v11.647h-5.523zM526.786 176.079h5.524v11.647h-5.524zM538.394 176.079h5.524v11.647h-5.524zM491.96 192.369h5.524v11.647h-5.524zM503.568 192.369h5.524v11.647h-5.524zM515.177 192.369h5.523v11.647h-5.523zM526.786 192.369h5.524v11.647h-5.524zM538.394 192.369h5.524v11.647h-5.524zM491.96 208.66h5.524v11.647h-5.524zM503.568 208.66h5.524v11.647h-5.524zM515.177 208.66h5.523v11.647h-5.523zM526.786 208.66h5.524v11.647h-5.524zM538.394 208.66h5.524v11.647h-5.524zM491.96 224.951h5.524v11.647h-5.524zM503.568 224.951h5.524v11.647h-5.524zM515.177 224.951h5.523v11.647h-5.523zM526.786 224.951h5.524v11.647h-5.524zM538.394 224.951h5.524v11.647h-5.524zM491.96 241.241h5.524v11.648h-5.524zM503.568 241.241h5.524v11.648h-5.524zM515.177 241.241h5.523v11.648h-5.523zM526.786 241.241h5.524v11.648h-5.524zM538.394 241.241h5.524v11.648h-5.524zM491.96 257.532h5.524v11.647h-5.524zM503.568 257.532h5.524v11.647h-5.524zM515.177 257.532h5.523v11.647h-5.523zM526.786 257.532h5.524v11.647h-5.524zM538.394 257.532h5.524v11.647h-5.524zM491.96 273.823h5.524v11.647h-5.524zM503.568 273.823h5.524v11.647h-5.524zM515.177 273.823h5.523v11.647h-5.523zM526.786 273.823h5.524v11.647h-5.524zM538.394 273.823h5.524v11.647h-5.524zM491.96 289.213h5.524v11.647h-5.524zM503.568 289.213h5.524v11.647h-5.524zM515.177 289.213h5.523v11.647h-5.523zM526.786 289.213h5.524v11.647h-5.524zM538.394 289.213h5.524v11.647h-5.524z" style="fill:#fff"/><path d="M548.954 87.022h27.096v220.349h-27.096z" style="fill:#e0e0e0"/><path d="M515.177 94.625h5.523v11.647h-5.523zM526.786 94.625h5.524v11.647h-5.524zM538.394 94.625h5.524v11.647h-5.524zM515.177 110.916h5.523v11.647h-5.523zM526.786 110.916h5.524v11.647h-5.524zM538.394 110.916h5.524v11.647h-5.524zM515.177 127.207h5.523v11.647h-5.523zM526.786 127.207h5.524v11.647h-5.524zM538.394 127.207h5.524v11.647h-5.524zM515.177 143.497h5.523v11.647h-5.523zM526.786 143.497h5.524v11.647h-5.524zM538.394 143.497h5.524v11.647h-5.524zM515.177 159.788h5.523v11.647h-5.523zM526.786 159.788h5.524v11.647h-5.524zM538.394 159.788h5.524v11.647h-5.524zM515.177 176.079h5.523v11.647h-5.523zM526.786 176.079h5.524v11.647h-5.524zM538.394 176.079h5.524v11.647h-5.524zM515.177 192.369h5.523v11.647h-5.523zM526.786 192.369h5.524v11.647h-5.524zM538.394 192.369h5.524v11.647h-5.524zM515.177 208.66h5.523v11.647h-5.523zM526.786 208.66h5.524v11.647h-5.524zM538.394 208.66h5.524v11.647h-5.524zM515.177 224.951h5.523v11.647h-5.523zM526.786 224.951h5.524v11.647h-5.524zM538.394 224.951h5.524v11.647h-5.524zM515.177 241.241h5.523v11.648h-5.523zM526.786 241.241h5.524v11.648h-5.524zM538.394 241.241h5.524v11.648h-5.524zM515.177 257.532h5.523v11.647h-5.523zM526.786 257.532h5.524v11.647h-5.524zM538.394 257.532h5.524v11.647h-5.524zM515.177 273.823h5.523v11.647h-5.523zM526.786 273.823h5.524v11.647h-5.524zM538.394 273.823h5.524v11.647h-5.524zM515.177 289.213h5.523v11.647h-5.523zM526.786 289.213h5.524v11.647h-5.524zM538.394 289.213h5.524v11.647h-5.524z" style="fill:#fff"/><path d="M555.085 94.625h5.524v11.647h-5.524zM566.694 94.625h5.524v11.647h-5.524zM555.085 110.916h5.524v11.647h-5.524zM566.694 110.916h5.524v11.647h-5.524zM555.085 127.207h5.524v11.647h-5.524zM566.694 127.207h5.524v11.647h-5.524zM555.085 143.497h5.524v11.647h-5.524zM566.694 143.497h5.524v11.647h-5.524zM555.085 159.788h5.524v11.647h-5.524zM566.694 159.788h5.524v11.647h-5.524zM555.085 176.079h5.524v11.647h-5.524zM566.694 176.079h5.524v11.647h-5.524zM555.085 192.369h5.524v11.647h-5.524zM566.694 192.369h5.524v11.647h-5.524zM555.085 208.66h5.524v11.647h-5.524zM566.694 208.66h5.524v11.647h-5.524zM555.085 224.951h5.524v11.647h-5.524zM566.694 224.951h5.524v11.647h-5.524zM555.085 241.241h5.524v11.648h-5.524zM566.694 241.241h5.524v11.648h-5.524zM555.085 257.532h5.524v11.647h-5.524zM566.694 257.532h5.524v11.647h-5.524zM555.085 273.823h5.524v11.647h-5.524zM566.694 273.823h5.524v11.647h-5.524zM555.085 289.213h5.524v11.647h-5.524zM566.694 289.213h5.524v11.647h-5.524z" style="fill:#ebebeb"/><path d="M627.53 138.733c.251 0 .455 5.22.455 11.658 0 6.44-.203 11.659-.455 11.659-.251 0-.455-5.219-.455-11.659.001-6.438.204-11.658.455-11.658zM650.719 163.864l-65.026 18.456v125.052h65.026z" style="fill:#e0e0e0"/><path d="M595.445 179.482v-22.176h40.034v10.814z" style="fill:#e0e0e0"/><path d="m590.649 183.564.514 114.991h52.894V168.394z" style="fill:#fff"/><path d="M604.951 301.174c-.251 0-.455-27.594-.455-61.625 0-34.043.204-61.631.455-61.631s.455 27.588.455 61.631c-.001 34.031-.204 61.625-.455 61.625zM627.182 301.174c-.251 0-.455-29.131-.455-65.058 0-35.939.204-65.064.455-65.064s.455 29.125.455 65.064c0 35.927-.204 65.058-.455 65.058z" style="fill:#e0e0e0"/><path d="M647.708 201.12c0 .251-13.172.455-29.415.455-16.25 0-29.418-.203-29.418-.455 0-.251 13.169-.455 29.418-.455 16.243 0 29.415.204 29.415.455zM647.158 236.31c0 .251-13.171.455-29.415.455-16.25 0-29.418-.204-29.418-.455s13.169-.455 29.418-.455c16.243 0 29.415.204 29.415.455zM650.457 271.775c0 .251-13.664.455-30.515.455-16.857 0-30.518-.204-30.518-.455s13.661-.455 30.518-.455c16.851 0 30.515.203 30.515.455zM650.472 163.864c.069.242-14.323 4.538-32.141 9.595-17.824 5.059-32.324 8.963-32.393 8.721-.069-.241 14.32-4.537 32.145-9.596 17.818-5.057 32.321-8.962 32.389-8.72zM607.923 227.401c-.178-.178 3.021-3.664 7.142-7.786 4.123-4.123 7.608-7.32 7.786-7.143.178.177-3.02 3.663-7.143 7.786-4.121 4.122-7.607 7.32-7.785 7.143zM617.863 213.245c.173.182-.978 1.559-2.571 3.075-1.594 1.517-3.026 2.598-3.199 2.416-.173-.182.978-1.558 2.572-3.075 1.593-1.516 3.025-2.598 3.198-2.416zM621.531 253.057c.179.176-2.552 3.247-6.099 6.859-3.548 3.613-6.57 6.398-6.749 6.222-.179-.176 2.551-3.246 6.1-6.859 3.548-3.613 6.569-6.399 6.748-6.222zM616.54 254.615c.186.168-.72 1.475-2.025 2.919s-2.514 2.478-2.7 2.309c-.187-.169.72-1.475 2.025-2.919 1.304-1.444 2.513-2.478 2.7-2.309zM639.001 183.588c.191.163-1.166 2.065-3.031 4.248-1.866 2.183-3.532 3.82-3.723 3.657-.191-.163 1.166-2.065 3.031-4.248 1.866-2.183 3.533-3.82 3.723-3.657zM637.487 181.278c.186.169-.778 1.536-2.153 3.053-1.376 1.518-2.641 2.611-2.828 2.442-.186-.168.778-1.535 2.154-3.053 1.375-1.517 2.641-2.611 2.827-2.442zM600.066 284.233c.205.145-.626 1.67-1.855 3.406-1.23 1.736-2.392 3.025-2.598 2.88-.205-.145.625-1.67 1.855-3.406 1.23-1.736 2.393-3.025 2.598-2.88zM598.495 282.138c.183.172-.548 1.249-1.632 2.406-1.085 1.157-2.113 1.956-2.297 1.784-.183-.172.548-1.249 1.633-2.406 1.084-1.157 2.112-1.956 2.296-1.784z" style="fill:#e0e0e0"/><path d="M418.027 76.789c-.816-2.179-1.649-4.389-3.022-6.268-1.373-1.879-3.379-3.418-5.689-3.701-2.31-.283-4.869.964-5.621 3.166-.331-4.962-1.035-10.053-3.518-14.361-2.484-4.308-7.118-7.693-12.082-7.389-4.68.286-8.688 3.763-10.914 7.889-2.227 4.127-2.991 8.86-3.722 13.492-1.774-2.177-5.52-1.493-7.372.619-1.852 2.112-2.321 5.063-2.714 7.844h54.75l-.096-1.291zM685.771 98.92c-.816-2.179-1.649-4.389-3.022-6.268-1.373-1.879-3.379-3.418-5.689-3.701-2.31-.283-4.869.964-5.621 3.166-.331-4.962-1.034-10.053-3.518-14.361s-7.118-7.693-12.082-7.389c-4.68.286-8.688 3.763-10.914 7.889-2.227 4.127-2.991 8.86-3.722 13.492-1.774-2.177-5.52-1.493-7.372.619-1.852 2.112-2.321 5.063-2.714 7.844h54.75l-.096-1.291z" style="fill:#f5f5f5"/><path d="M621.276 70.874c-.496-1.323-1.001-2.665-1.835-3.806-.834-1.141-2.052-2.076-3.454-2.247s-2.956.585-3.414 1.922c-.201-3.013-.628-6.104-2.136-8.72-1.508-2.616-4.322-4.671-7.337-4.487-2.842.174-5.275 2.285-6.627 4.791-1.352 2.506-1.816 5.38-2.26 8.193-1.077-1.322-3.352-.907-4.476.376-1.124 1.282-1.409 3.075-1.648 4.763h33.245l-.058-.785zM333.545 52.347c-.496-1.323-1.001-2.665-1.835-3.806-.834-1.141-2.052-2.076-3.454-2.247-1.403-.172-2.957.585-3.414 1.922-.201-3.013-.628-6.104-2.136-8.721-1.508-2.616-4.322-4.671-7.337-4.487-2.842.174-5.275 2.285-6.627 4.791-1.352 2.506-1.816 5.38-2.26 8.193-1.077-1.322-3.352-.906-4.476.376s-1.409 3.074-1.648 4.763h33.245l-.058-.784zM99.335 98.348c-.606-1.617-1.223-3.257-2.242-4.651-1.019-1.394-2.508-2.536-4.222-2.746-1.714-.21-3.613.715-4.172 2.349-.246-3.682-.768-7.46-2.611-10.657-1.843-3.197-5.282-5.709-8.966-5.484-3.473.212-6.447 2.792-8.099 5.855-1.652 3.062-2.22 6.575-2.762 10.012-1.317-1.616-4.097-1.108-5.471.459-1.374 1.567-1.722 3.757-2.014 5.821h40.629l-.07-.958zM321.868 426.947H89.13l18.774-5.083h232.738zM637.601 426.947H404.863l18.774-5.083h232.738z" style="fill:#ebebeb"/><path d="M734.999 308.117c0 .144-161.19.26-359.982.26-198.861 0-360.017-.117-360.017-.26 0-.144 161.156-.26 360.017-.26 198.792 0 359.982.117 359.982.26z" style="fill:#263238"/><path d="M93.922 401.511c2.961-1.228 184.891-8.964 188.629-6.826 3.738 2.138 381.686-14.294 379.091-14.294s-11.544-44.779-11.544-44.779-36.174-26.629-39.558-29.411-439.278-2.277-441.873.497c-2.595 2.774-74.745 34.774-74.745 34.774v60.039z" style="fill:#ff725e"/><path d="M93.922 401.511c2.961-1.228 184.891-8.964 188.629-6.826 3.738 2.138 381.686-14.294 379.091-14.294s-11.544-44.779-11.544-44.779-36.174-26.629-39.558-29.411-439.278-2.277-441.873.497c-2.595 2.774-74.745 34.774-74.745 34.774v60.039z" style="opacity:.5"/><path d="m627.57 217.146 45.947 42.188-20.607 5.36-17.945-12.628-24.425-23.263 8.474-13.458zM215.406 269.349s79.708-51.383 108.075-59.722l8.282 3.9-13.345 11.247-97.961 50.726-5.051-6.151z" style="fill:#455a64"/><path d="m685.63 311.547-7.519-14.62 3.759-5.848v-21.303l-8.354-10.443-15.455-2.089-38.846-35.923 8.354-4.177 2.089-5.012-2.506-4.595c-49.707-9.189-192.562-11.278-229.737-11.696s-73.934 13.784-73.934 13.784l3.342 2.924s-15.455 7.519-37.176 17.961c-21.721 10.443-65.997 39.682-65.997 39.682l-16.29-1.671c-83.959 6.266-118.21 23.391-129.071 28.404-10.86 5.012-23.809 35.505-23.809 35.505-3.342 7.239 2.506 45.53 2.506 45.53s34.669 16.29 35.923 16.29c.274 0 6.881-.12 17.037-.307a63.272 63.272 0 0 1-.791-9.952c0-34.739 28.162-62.901 62.901-62.901s62.901 28.162 62.901 62.901c0 2.597-.176 5.152-.482 7.667l219.33-2.838 66.027-7.201c1.249-33.639 28.897-60.53 62.841-60.53 25.688 0 47.779 15.398 57.548 37.468a62.373 62.373 0 0 1 3.325 9.57l36.237-3.952 10.443-12.949-4.596-39.679z" style="fill:#ff725e"/><path d="M53.448 375.704s2.251 15.156 6.022 18.548c3.771 3.392 38.054 12.306 44.568 12.649 6.514.343 9.419 0 9.419 0l-4.303-27.769-55.706-3.428zM230.884 375.704c0 .343 4.119 31.35 4.119 31.35l282.95-9.066 5.201-31.54-292.27 9.256z" style="fill:#263238"/><path d="M245.904 365.23c-.013-.167 13.996-7.392 33.977-9.8 19.982-2.407 187.778-11.315 198.852-9.87 11.074 1.444 27.444 8.426 27.444 8.426L245.904 365.23z" style="opacity:.3"/><path d="M406.005 401.511c-.009 0-.018-.12-.026-.355l-.023-1.042-.039-4.005-.046-14.73.046-48.596c-.014-4.747.146-9.407.6-13.86.395-4.463.909-8.753 1.443-12.832 1.077-8.158 2.236-15.475 3.242-21.613l2.47-14.522.664-3.948c.083-.451.113-.796.148-1.028.032-.232.053-.352.062-.352s.006.12-.008.354c-.017.234-.031.587-.097 1.04-.11.91-.304 2.247-.568 3.966l-2.307 14.548c-.96 6.143-2.08 13.463-3.13 21.616-.521 4.077-1.024 8.362-1.411 12.815-.447 4.455-.601 9.067-.588 13.811l-.198 48.601-.12 14.731-.059 4.005-.028 1.041c-.009.235-.018.355-.027.355z" style="fill:#263238"/><path d="M123.127 299.136c-1.156.349 120.106-2.387 141.482-5.304 21.376-2.917 367.97-17.04 367.97-17.04s-468.991 10.129-509.452 22.344zM650.098 300.823s6.05 14.072 12.778 15.445c6.729 1.373 22.754-4.72 22.754-4.72l-7.519-14.62-28.013 3.895z" style="opacity:.3"/><path d="M631.202 278.966c.145 1.503 15.89 20.997 18.896 21.856 3.006.859 21.786-.286 23.419-1.002 1.633-.716 4.595-2.893 4.595-2.893l3.759-5.848s.709-14.65 0-14.478c-.709.172-50.956-.595-50.669 2.365z" style="fill:#fff"/><path d="M77.071 306.201c-.004-.008.117-.074.359-.191l1.078-.506c.951-.439 2.363-1.063 4.191-1.846a270.335 270.335 0 0 1 15.695-6.106c3.355-1.178 7.048-2.426 11.065-3.597 4.014-1.177 8.34-2.322 12.976-3.182 9.268-1.628 19.522-2.936 30.289-4.246 21.548-2.563 41.093-4.515 55.242-5.886l16.763-1.552 4.561-.384 1.188-.085c.268-.016.405-.02.406-.011.001.009-.135.031-.401.064l-1.183.137-4.552.481-16.746 1.717c-14.139 1.464-33.675 3.475-55.217 6.036-10.761 1.309-21.015 2.603-30.265 4.201-4.61.842-8.93 1.968-12.94 3.125-4.013 1.149-7.706 2.376-11.064 3.53-6.714 2.321-12.057 4.452-15.739 5.945l-4.226 1.755-1.099.459c-.249.101-.377.15-.381.142z" style="fill:#263238"/><path d="M76.226 306.568c-.381.18-12.246 15.972-10.648 17.703 1.597 1.73 20.232 2.13 26.754-1.464 6.522-3.594 29.948-22.761 30.082-23.559.133-.799-36.604 2.795-46.188 7.32z" style="fill:#fff"/><path d="M53.448 346.097c.128.016 24.184-3.589 30.005 1.511 5.82 5.1 8.51 25.801 7.898 28.096-.612 2.295-34.724-.199-34.696 0 .014.097-1.017-6.992-1.804-14.252-.823-7.584-1.403-15.355-1.403-15.355z" style="opacity:.3"/><path d="M63.773 347.23c-.396.858 2.456 19.267 5.478 21.911 3.022 2.644 21.156 3.211 21.156 3.211s-3.148-20.704-6.954-23.611c-3.807-2.907-18.547-3.966-19.68-1.511z" style="fill:#263238"/><path d="M345.18 203.207s7.933-5.048 21.675-10.101c13.742-5.053 70.491-5.053 99.756-4.544 29.265.509 94.921.435 109.427 4.544 14.505 4.109 24.934 10.939 24.934 10.939l-12.735-1.054s-12.574-7.157-39.428-7.558c-14.249-.213-157.778-1.272-165.413 0-7.634 1.273-14.211 3.127-14.211 3.127l-24.005 4.647z" style="fill:#e0e0e0"/><path d="m345.18 203.207 23.984-4.754-.009.002a147.12 147.12 0 0 1 7.508-1.849c1.343-.294 2.731-.579 4.164-.851l2.184-.394c.739-.127 1.509-.132 2.279-.204 1.546-.138 3.12-.118 4.741-.187 1.619-.057 3.278-.083 4.975-.107 3.394-.061 6.943-.105 10.638-.129 14.782-.122 31.913-.13 50.917-.093l62.156.281 16.96.126 8.663.077 4.375.05 4.408.134c5.89.27 11.851.846 17.783 1.997 2.972.54 5.924 1.275 8.854 2.134 2.924.89 5.828 1.885 8.603 3.322l-.107-.033 12.735 1.053-.164.477c-.43-.275-.909-.571-1.393-.856-3.841-2.269-7.834-4.237-11.893-5.955-4.065-1.696-8.195-3.219-12.402-4.277-4.207-1.009-8.545-1.347-12.804-1.767-4.274-.355-8.522-.617-12.734-.842-16.857-.821-33.142-1.089-48.651-1.326l-44.046-.593c-13.793-.155-26.643-.11-38.371.101-11.726.231-22.333.642-31.62 1.369-4.646.336-8.951.849-12.895 1.429l-2.87.551c-.466.098-.934.164-1.383.285l-1.322.381c-1.757.446-3.357 1.137-4.889 1.712-6.107 2.387-10.702 4.602-13.764 6.193a101.166 101.166 0 0 0-3.451 1.874c-.769.442-1.159.669-1.159.669s.375-.26 1.134-.712a83.335 83.335 0 0 1 3.429-1.921c3.049-1.623 7.634-3.869 13.738-6.289 1.534-.584 3.123-1.28 4.898-1.74l1.332-.39c.451-.123.92-.192 1.387-.292l2.88-.564a173.787 173.787 0 0 1 12.912-1.474c9.294-.756 19.905-1.192 31.636-1.447 11.731-.234 24.585-.301 38.383-.165l44.048.545c15.512.224 31.8.482 48.671 1.296 4.217.224 8.47.483 12.753.838 4.275.422 8.605.753 12.888 1.778 4.248 1.068 8.387 2.595 12.476 4.3 4.081 1.727 8.09 3.702 11.957 5.987.488.288.968.584 1.412.868l.883.564-1.047-.087-12.735-1.054-.052-.004-.056-.029c-2.689-1.393-5.601-2.399-8.495-3.278-2.91-.853-5.845-1.585-8.803-2.123-5.902-1.147-11.84-1.723-17.709-1.994l-4.393-.135-4.373-.052-8.662-.082-16.959-.137-62.154-.345c-19.004-.064-36.134-.087-50.913-.001-3.695.015-7.243.05-10.636.102a238.97 238.97 0 0 0-4.972.093c-1.614.063-3.203.04-4.725.171-.762.07-1.519.069-2.257.194l-2.181.386a157.46 157.46 0 0 0-4.16.835 147.614 147.614 0 0 0-7.502 1.815l-.005.001-.004.001-24.024 4.541zM639.831 394.253c2.772-.313-.489-35.167-2.029-35.092-1.148.056 49.974-10.439 52.145-10.329 2.379.12 3.067 2.527 2.63 1.538 0 0 5.41 17.51 3.607 21.941-1.803 4.432-38.996 20.967-41.926 21.941-2.931.975-14.427.001-14.427.001zM551.395 329.67c-.009-.002.01-.111.054-.321l.207-.929.839-3.561 3.122-13.088c1.304-5.528 2.856-12.112 4.45-19.449.77-3.669 1.638-7.528 2.181-11.552.055-.496.114-1.02.086-1.478.012-.211-.114-.45-.205-.681l-.285-.699-1.323-2.84-2.809-5.768c-7.685-15.542-14.793-29.539-19.89-39.693l-6.033-12.027-1.62-3.28-.41-.859c-.09-.195-.132-.297-.124-.301s.066.09.171.277l.456.835 1.707 3.236 6.181 11.952c5.181 10.112 12.341 24.082 20.029 39.63l2.81 5.775 1.327 2.857.3.742c.095.25.224.475.228.791.033.571-.033 1.073-.089 1.59-.558 4.078-1.435 7.919-2.219 11.595-1.621 7.338-3.21 13.914-4.561 19.433a1084.361 1084.361 0 0 1-3.283 13.051l-.934 3.538-.257.917c-.061.205-.097.31-.106.307z" style="fill:#263238"/><path d="M229.795 278.966c.779-.296 74.286-54.834 108.669-61.652 34.383-6.817 69.062-9.485 103.741-8.596 34.679.889 139.309 7.41 139.309 7.41l17.784 18.97-43.275 26.38-326.228 17.488z" style="fill:#455a64"/><g style="opacity:.2"><path d="M338.464 217.315c-17.674 3.504-45.686 19.619-68.844 34.493 20.792-3.711 96.532-16.243 138.189-19.281 48.053-3.504 189.075 0 189.077 0l-15.373-16.398s-104.63-6.521-139.309-7.41c-34.678-.889-69.357 1.778-103.74 8.596z" style="fill:#fff"/></g><path d="m414.547 209.627-17.784 60.447 32.29-1.792 3.867-58.655zM533.719 262.734c.676-.676 3.607-27.726 3.607-27.726s-12.172-21.865-11.496-21.865h9.242s23.217 48.238 22.766 48.238-24.119 1.353-24.119 1.353z" style="fill:#263238"/><path d="M229.795 279.966a1 1 0 0 1-.465-1.885c.211-.134 1.243-.87 2.541-1.794 49.405-35.216 86.197-55.948 106.4-59.954 33.426-6.628 68.401-9.527 103.96-8.614 34.302.879 138.3 7.346 139.347 7.412a1 1 0 0 1 .667.314l17.784 18.97a1.002 1.002 0 0 1-.209 1.538l-43.274 26.379a1.008 1.008 0 0 1-.467.146L229.85 279.965l-.055.001zm199.683-70.411c-31.032 0-61.525 2.932-90.819 8.74-19.617 3.89-57.056 25.012-105.439 59.486l322.498-17.288 42.009-25.608-16.671-17.783c-7.093-.44-105.686-6.533-138.877-7.384a499.097 499.097 0 0 0-12.701-.163z" style="fill:#e0e0e0"/><path d="M249.077 406.596c-.009.001-.027-.124-.055-.368l-.11-1.085-.372-4.177-1.266-15.371a8444.783 8444.783 0 0 1-3.908-50.731c-.891-12.174-1.734-23.637-2.316-33.686-.038-1.263-.17-2.494-.031-3.734a25.45 25.45 0 0 1 .701-3.521c.605-2.257 1.339-4.365 2.089-6.341a141.54 141.54 0 0 1 4.425-10.331l-.01.029 2.342-9.335.641-2.471.175-.633c.042-.142.066-.213.073-.211.007.002-.004.076-.033.221l-.135.642-.566 2.489-2.207 9.367-.003.014-.007.016a148.467 148.467 0 0 0-4.329 10.34c-.735 1.974-1.452 4.077-2.04 6.313a25.274 25.274 0 0 0-.673 3.459c-.129 1.175.005 2.415.048 3.664.62 10.036 1.486 21.5 2.376 33.673l3.756 50.742 1.101 15.383.275 4.185.058 1.089c.009.242.01.368.001.369z" style="fill:#263238"/><path d="m246.311 393.675 265.256-7.836-4.69 5.786-252.294 8.074z" style="opacity:.3"/><circle cx="172.996" cy="381.335" r="55.779" style="fill:#263238" transform="rotate(-87.656 172.991 381.322)"/><path d="M117.232 380.387c-.001.048-.009.095-.01.144-.444 30.802 24.166 56.133 54.969 56.577 30.803.444 56.134-24.166 56.578-54.968.001-.048-.005-.096-.005-.144l-111.532-1.609z" style="fill:#263238"/><path d="M133.84 380.77c-.312 21.626 16.966 39.41 38.591 39.722 21.626.312 39.41-16.966 39.722-38.592.312-21.625-16.966-39.41-38.592-39.721-21.626-.313-39.409 16.966-39.721 38.591z" style="fill:#fafafa"/><path d="M173.561 342.178c-21.626-.312-39.409 16.966-39.721 38.592l78.313 1.13c.312-21.626-16.966-39.41-38.592-39.722z" style="fill:#e0e0e0"/><path d="M149.144 380.991c-.19 13.173 10.335 24.006 23.508 24.196 13.173.19 24.007-10.335 24.197-23.508.19-13.174-10.336-24.007-23.509-24.197-13.173-.19-24.006 10.335-24.196 23.509z" style="fill:#263238"/><circle cx="581.657" cy="381.335" r="55.779" style="fill:#263238" transform="rotate(-87.656 581.659 381.317)"/><path d="M525.894 380.387c-.001.048-.009.095-.01.144-.444 30.802 24.166 56.133 54.969 56.577 30.803.444 56.134-24.166 56.578-54.968.001-.048-.005-.096-.005-.144l-111.532-1.609z" style="fill:#263238"/><path d="M542.501 380.77c-.312 21.626 16.966 39.41 38.591 39.722 21.626.312 39.41-16.966 39.722-38.592.312-21.625-16.966-39.41-38.592-39.721-21.626-.313-39.409 16.966-39.721 38.591z" style="fill:#fafafa"/><path d="M582.222 342.178c-21.626-.312-39.409 16.966-39.721 38.592l78.313 1.13c.312-21.626-16.966-39.41-38.592-39.722z" style="fill:#e0e0e0"/><path d="M557.805 380.991c-.19 13.173 10.335 24.006 23.508 24.196 13.173.19 24.007-10.335 24.197-23.508.19-13.174-10.336-24.007-23.509-24.197-13.173-.19-24.006 10.335-24.196 23.509zM237.751 345.862c-.008.003-.071-.127-.184-.382l-.492-1.14c-.476-.981-1.145-2.448-2.238-4.208-2.131-3.541-5.927-8.283-11.666-12.972-5.709-4.694-13.31-9.405-22.525-12.714-9.191-3.31-20.021-5.093-31.291-4.297-11.269.816-21.777 3.929-30.536 8.263-8.805 4.3-15.888 9.718-21.264 14.792-2.687 2.55-4.929 5.044-6.84 7.281-.918 1.149-1.793 2.204-2.549 3.213-.739 1.021-1.447 1.931-2.029 2.789l-1.545 2.281-1.075 1.709-.666 1.049c-.153.235-.235.353-.242.349-.008-.005.059-.132.196-.376l.622-1.077c.279-.47.612-1.06 1.034-1.738l1.508-2.312c.57-.868 1.267-1.79 1.997-2.823.746-1.02 1.612-2.088 2.523-3.249 1.895-2.263 4.128-4.784 6.81-7.362 5.366-5.13 12.463-10.607 21.307-14.956 8.801-4.383 19.367-7.53 30.711-8.352 11.347-.802 22.25 1.009 31.49 4.365 9.264 3.355 16.89 8.127 22.597 12.882 5.74 4.75 9.518 9.56 11.605 13.151 2.106 3.598 2.742 5.834 2.742 5.834zM650.138 340.639c-.008.003-.071-.126-.185-.383l-.492-1.14c-.476-.981-1.145-2.448-2.238-4.208-2.131-3.541-5.927-8.283-11.666-12.972-5.709-4.694-13.31-9.405-22.525-12.714-9.191-3.31-20.021-5.093-31.291-4.297-11.269.816-21.777 3.929-30.536 8.263-8.805 4.3-15.888 9.718-21.264 14.792-2.687 2.55-4.929 5.044-6.84 7.281-.918 1.149-1.793 2.204-2.549 3.212-.739 1.021-1.447 1.931-2.029 2.789l-1.545 2.281-1.075 1.709-.666 1.049c-.153.235-.235.353-.242.349-.008-.004.059-.132.196-.375l.622-1.077c.279-.47.612-1.06 1.034-1.738l1.508-2.312c.57-.868 1.267-1.79 1.997-2.823.747-1.02 1.612-2.088 2.523-3.249 1.895-2.263 4.128-4.784 6.81-7.362 5.366-5.13 12.463-10.607 21.307-14.956 8.801-4.383 19.367-7.53 30.711-8.352 11.347-.802 22.25 1.009 31.49 4.365 9.265 3.355 16.89 8.127 22.597 12.882 5.74 4.75 9.518 9.56 11.605 13.152 2.108 3.599 2.743 5.834 2.743 5.834zM511.567 352.93c.007.144-58.72 3.149-131.153 6.712-72.459 3.564-131.184 6.336-131.191 6.192-.007-.144 58.707-3.148 131.166-6.712 72.432-3.563 131.171-6.336 131.178-6.192zM209.816 268.776l16.808-.531-2.974 1.949z" style="fill:#263238"/><path d="M269.687 274.265c.09.239-3.4 7.928-3.4 7.928l2.602 2.434h12.676s9.99-10.651 9.654-10.362c-.336.288-20.987-.006-20.987-.006" style="fill:#ff725e"/><path d="M269.776 274.265c.09.239-3.4 7.928-3.4 7.928l2.602 2.434h12.676s9.99-10.651 9.654-10.362c-.336.288-20.987-.006-20.987-.006" style="opacity:.3"/><path d="M267.008 265.782c-.213.426 1.778 5.86 3.028 9.175a3.922 3.922 0 0 0 3.675 2.538h23.613l.965-16.673-7.854-7.992c-.001-.001-20.533 7.164-23.427 12.952z" style="fill:#ff725e"/><path d="M267.008 265.782s.237-.678 1.125-1.634c.88-.954 2.373-2.146 4.41-3.403 4.078-2.516 10.259-5.387 17.813-8.139l.14-.051.107.108 7.868 7.978.08.081-.007.114-.47 8.199-.495 8.474-.014.242h-.242l-15.084-.031-6.474-.026-1.485-.007c-.475-.002-.983.009-1.461-.106a4.122 4.122 0 0 1-2.317-1.465c-.569-.71-.751-1.54-1.03-2.235l-.727-2.027a108.487 108.487 0 0 1-1.099-3.25c-.582-1.78-.761-2.821-.638-2.822-.057.006.175 1 .811 2.764l1.173 3.218.761 2.012c.295.708.488 1.507 1.011 2.131a3.775 3.775 0 0 0 2.134 1.314c.434.099.888.086 1.382.082l1.485-.007 6.474-.026 15.084-.032-.255.241.486-8.475.478-8.199.073.194-7.84-8.006.246.057c-7.536 2.702-13.731 5.507-17.821 7.936-2.045 1.214-3.547 2.357-4.449 3.265-.907.909-1.194 1.554-1.233 1.531z" style="fill:#263238"/><path d="M298.026 260.657c.008.035-.419.16-1.197.354-.778.196-1.909.456-3.309.761-2.802.61-6.688 1.381-11 2.119a260.28 260.28 0 0 1-11.08 1.659c-1.423.178-2.575.309-3.374.383-.799.075-1.242.1-1.247.064-.005-.036.43-.128 1.22-.265l3.349-.546a912.734 912.734 0 0 0 11.044-1.808c4.306-.738 8.198-1.45 11.015-1.967l3.34-.598c.791-.134 1.232-.191 1.239-.156zM272.983 277.314c.127.067-.654 1.804-1.746 3.879-1.092 2.076-2.08 3.704-2.207 3.637-.127-.067.654-1.804 1.746-3.88 1.091-2.075 2.08-3.703 2.207-3.636z" style="fill:#263238"/><path d="M405.536 275.775c.008.144-22.095 1.45-49.36 2.917-27.275 1.468-49.385 2.541-49.393 2.397-.008-.144 22.09-1.449 49.365-2.917 27.265-1.467 49.38-2.541 49.388-2.397zM511.928 269.974c.008.144-20.305 1.346-45.363 2.686-25.067 1.34-45.388 2.31-45.395 2.166-.008-.143 20.3-1.346 45.368-2.686 25.058-1.339 45.383-2.309 45.39-2.166zM388.669 201.704c.002.018-.188.054-.552.107l-1.591.205-5.858.693a789.935 789.935 0 0 0-19.291 2.515 792.113 792.113 0 0 0-19.222 3.022l-5.815.985-1.584.251c-.363.052-.556.071-.559.053-.003-.018.182-.071.54-.156l1.567-.348c1.362-.293 3.34-.687 5.788-1.149a457.595 457.595 0 0 1 19.212-3.175 457.207 457.207 0 0 1 19.325-2.365c2.479-.246 4.488-.426 5.878-.529l1.601-.108c.366-.018.56-.019.561-.001zM282.876 258.83c.045.146-2.581 1.045-5.708 2.411-3.133 1.357-5.58 2.664-5.656 2.532-.071-.115 2.283-1.638 5.449-3.009 3.159-1.381 5.879-2.065 5.915-1.934zM195.243 271.358c.001.009-.087.029-.26.06l-.771.124-2.97.427c-2.581.352-6.312.89-10.916 1.591a642.807 642.807 0 0 0-35.797 6.5 642.804 642.804 0 0 0-35.364 8.577 736.354 736.354 0 0 0-10.622 2.972l-2.887.814-.755.199c-.171.042-.26.06-.262.051-.003-.009.081-.043.247-.102l.74-.249 2.86-.908c2.485-.785 6.099-1.86 10.582-3.133 8.964-2.55 21.437-5.778 35.354-8.732 13.915-2.943 26.624-5.05 35.851-6.355 4.614-.655 8.354-1.138 10.944-1.428l2.983-.33.777-.073c.174-.011.265-.014.266-.005zM181.224 312.873c-.001.018-.228.033-.659.046l-1.886.03a42.565 42.565 0 0 0-2.98.086c-1.16.068-2.484.09-3.937.257l-2.284.215c-.794.078-1.613.219-2.464.331-1.707.203-3.507.572-5.406.924a96.818 96.818 0 0 0-12.093 3.382 96.763 96.763 0 0 0-11.493 5.066c-1.691.934-3.316 1.791-4.764 2.718-.729.454-1.451.866-2.114 1.309l-1.902 1.284c-1.23.793-2.266 1.617-3.205 2.301a42.245 42.245 0 0 0-2.356 1.825l-1.476 1.174c-.341.264-.526.397-.538.383-.012-.013.15-.172.47-.462l1.415-1.251a35.333 35.333 0 0 1 2.308-1.9c.926-.708 1.951-1.556 3.172-2.372l1.891-1.318c.66-.454 1.38-.876 2.108-1.341 1.446-.947 3.071-1.824 4.766-2.774a92.521 92.521 0 0 1 11.543-5.132 92.431 92.431 0 0 1 12.173-3.362c1.912-.342 3.724-.696 5.443-.882.857-.103 1.682-.235 2.48-.303l2.298-.183c1.462-.145 2.792-.141 3.957-.181a35.554 35.554 0 0 1 2.99.002l1.888.068c.43.022.656.042.655.06zM588.414 307.483c0 .018-.228.043-.661.075l-1.895.112c-.823.033-1.829.088-2.992.218-1.163.121-2.493.201-3.946.437l-2.286.322c-.794.116-1.611.296-2.462.449-1.707.285-3.498.743-5.389 1.19a95.22 95.22 0 0 0-11.982 4.013 95.068 95.068 0 0 0-11.274 5.714c-1.646 1.034-3.231 1.987-4.632 3.002-.706.498-1.409.953-2.049 1.437l-1.835 1.402c-1.189.869-2.18 1.759-3.083 2.503a41.284 41.284 0 0 0-2.256 1.977l-1.41 1.27c-.327.286-.504.431-.517.418s.14-.182.443-.493l1.345-1.343a34.706 34.706 0 0 1 2.204-2.048c.888-.767 1.866-1.681 3.046-2.572l1.823-1.435c.637-.495 1.336-.96 2.041-1.469 1.398-1.036 2.982-2.008 4.631-3.059a90.994 90.994 0 0 1 11.321-5.784 91.088 91.088 0 0 1 12.065-3.998c1.906-.436 3.71-.882 5.429-1.149.857-.145 1.679-.316 2.479-.422l2.302-.29c1.463-.214 2.801-.269 3.97-.362a34.856 34.856 0 0 1 3.006-.131l1.901-.014c.434.002.662.012.663.03z" style="fill:#fff"/><path d="M399.581 296.285c0 3.503-5.187 6.343-11.586 6.343s-11.586-2.84-11.586-6.343 5.187-6.344 11.586-6.344 11.586 2.84 11.586 6.344z" style="opacity:.3"/><path d="M401.505 299.392h-27.02a3.107 3.107 0 1 1 0-6.214h27.02a3.107 3.107 0 1 1 0 6.214z" style="fill:#ff725e"/><path d="M401.505 299.392c-.001-.028.261-.018.727-.143a3.086 3.086 0 0 0 1.681-1.17c.538-.703.823-1.935.254-3.084a2.936 2.936 0 0 0-1.417-1.371c-.644-.33-1.417-.266-2.26-.261l-26.004.076c-1.176-.018-2.276.773-2.664 1.843-.414 1.064-.106 2.331.709 3.077.398.38.905.633 1.435.732.513.086 1.129.038 1.697.053l3.379.009 11.691.056 7.882.083 2.143.049c.489.015.747.033.747.051s-.257.035-.747.052l-2.143.049-7.882.083-11.691.056-3.379.009c-.581-.016-1.138.045-1.788-.054a3.355 3.355 0 0 1-1.694-.856c-.963-.877-1.332-2.373-.844-3.632.456-1.266 1.758-2.201 3.149-2.181l26.004.076c.421.008.811-.005 1.229.02.417.03.816.14 1.171.31a3.23 3.23 0 0 1 1.538 1.544c.598 1.277.244 2.601-.354 3.332a3.103 3.103 0 0 1-1.818 1.151c-.49.095-.751.041-.751.041z" style="fill:#263238"/><path d="M398.782 293.836c0 .144-5.26.26-11.747.26-6.489 0-11.748-.117-11.748-.26 0-.144 5.259-.26 11.748-.26 6.487 0 11.747.117 11.747.26z" style="fill:#fff"/><path d="M543.199 296.285c0 3.503-5.187 6.343-11.586 6.343s-11.586-2.84-11.586-6.343 5.187-6.344 11.586-6.344 11.586 2.84 11.586 6.344z" style="opacity:.3"/><path d="M545.123 299.392h-27.02a3.107 3.107 0 1 1 0-6.214h27.02a3.107 3.107 0 1 1 0 6.214z" style="fill:#ff725e"/><path d="M545.123 299.392c-.002-.028.261-.018.727-.143a3.086 3.086 0 0 0 1.681-1.17c.538-.703.823-1.935.254-3.084a2.936 2.936 0 0 0-1.417-1.371c-.644-.33-1.417-.266-2.26-.261l-26.004.076c-1.176-.018-2.276.773-2.664 1.843-.414 1.064-.106 2.331.709 3.077.398.38.905.633 1.435.732.513.086 1.129.038 1.697.053l3.379.009 11.691.056 7.882.083 2.143.049c.49.015.747.033.747.051s-.257.035-.747.052l-2.143.049-7.882.083-11.691.056-3.379.009c-.581-.016-1.138.045-1.788-.054a3.355 3.355 0 0 1-1.694-.856c-.963-.877-1.332-2.373-.844-3.632.456-1.266 1.758-2.201 3.149-2.181l26.004.076c.421.008.811-.005 1.229.02.417.03.815.14 1.171.31a3.23 3.23 0 0 1 1.538 1.544c.598 1.277.244 2.601-.354 3.332a3.103 3.103 0 0 1-1.818 1.151c-.489.095-.751.041-.751.041z" style="fill:#263238"/><path d="M546.366 294.118c0 .144-6.677.26-14.912.26-8.238 0-14.914-.117-14.914-.26 0-.144 6.676-.26 14.914-.26 8.234-.001 14.912.116 14.912.26z" style="fill:#fff"/></svg>